[img]http://img200.imageshack.us/img200/5433/blankdr.png[/img]




[img]http://img816.imageshack.us/img816/4906/mxmgtorrentstate.jpg[/img]

[quote]
Format                           : AVI
Format/Info                      : Audio Video Interleave
File size                        : 700 MiB
Duration                         : 1h 42mn
Overall bit rate                 : 957 Kbps
Writing application              : VirtualDubMod 1.5.10.3 | www.virtualdub-fr.org || (build 2550/release)
Writing library                  : VirtualDubMod build 2550/release

Video
ID                               : 0
Format                           : MPEG-4 Visual
Format profile                   : Advanced Simple@L5
Format settings, BVOP            : 1
Format settings, QPel            : No
Format settings, GMC             : No warppoints
Format settings, Matrix          : Default (H.263)
Codec ID                         : XVID
Codec ID/Hint                    : XviD
Duration                         : 1h 42mn
Bit rate                         : 820 Kbps
Width                            : 640 pixels
Height                           : 272 pixels
Display aspect ratio             : 2.35:1
Frame rate                       : 23.976 fps
Color space                      : YUV
Chroma subsampling               : 4:2:0
Bit depth                        : 8 bits
Scan type                        : Progressive
Compression mode                 : Lossy
Bits/(Pixel*Frame)               : 0.196
Stream size                      : 599 MiB (86%)
Writing library                  : XviD 63

Audio
ID                               : 1
Format                           : MPEG Audio
Format version                   : Version 1
Format profile                   : Layer 3
Codec ID                         : 55
Codec ID/Hint                    : MP3
Duration                         : 1h 42mn
Bit rate mode                    : Constant
Bit rate                         : 128 Kbps
Channel(s)                       : 2 channels
Sampling rate                    : 48.0 KHz
Compression mode                 : Lossy
Stream size                      : 93.6 MiB (13%)
Alignment                        : Aligned on interleaves
Interleave, duration             : 42 ms (1.00 video frame)
Interleave, preload duration     : 504 ms
Writing library                  : LAME3.98r
Encoding settings                : -m s -V 4 -q 2 -lowpass 17 -b 128


[/quote]


Screens :
[img]http://img16.imageshack.us/img16/9782/screenshot2011042314h03.png[/img]

[img]http://img695.imageshack.us/img695/8009/screenshot2011042313h59.png[/img]

[img]http://img31.imageshack.us/img31/8009/screenshot2011042313h59.png[/img]

[img]http://img638.imageshack.us/img638/9920/screenshot2011042314h01.png[/img]

[img]http://img688.imageshack.us/img688/7866/screenshot2011042314h02.png[/img]




[quote]
# Latest codecs used to deliver Top Quality Releases
# Seeded at high speeds to grant super Download speeds
# All DivX/XviD Players compatible and also PS3, Popcorn Hour, WD & XBOX 360*
[/quote]

[code]
Seedboxes provided by   http://www.chociz.com/
A seedbox is a private dedicated server used for the uploading and downloading of digital files.
Speed - You can sit back, relax and watch in amazement at how fast the torrents finish. 
Secure and Safe - With a seedbox, you don’t even need to use a BitTorrent client on your home computer!
Use Private Trackers -  You can register @ Private Trackers and seed like Hell!

Get a Cheap Seedbox choosing for your taste - [url]http://www.chociz.com/whmcs/cart.php[/url]
[/code]

